<?xml version="1.0" encoding="UTF-8"?>
<svg xmlns="http://www.w3.org/2000/svg" width="1024" height="1024" viewBox="0 0 1024 1024" preserveAspectRatio="xMinYMin meet">
  <path d="M 626.00 240.00 L 613.00 261.00 L 616.00 262.00 L 719.00 261.00 L 727.00 265.00 L 729.00 274.00 L 722.00 279.00 L 690.00 278.00 L 667.00 279.00 L 658.00 281.00 L 654.00 283.00 L 652.00 286.00 L 652.00 292.00 L 656.00 299.00 L 662.00 302.00 L 738.00 301.00 L 744.00 302.00 L 748.00 309.00 L 747.00 312.00 L 742.00 316.00 L 669.00 315.00 L 656.00 317.00 L 651.00 325.00 L 651.00 331.00 L 656.00 337.00 L 660.00 340.00 L 753.00 340.00 L 757.00 344.00 L 757.00 351.00 L 753.00 355.00 L 660.00 356.00 L 653.00 361.00 L 652.00 367.00 L 654.00 372.00 L 665.00 378.00 L 689.00 379.00 L 755.00 377.00 L 761.00 380.00 L 763.00 388.00 L 760.00 392.00 L 756.00 394.00 L 638.00 393.00 L 637.00 395.00 L 629.00 398.00 L 619.00 405.00 L 614.00 416.00 L 613.00 435.00 L 614.00 542.00 L 636.00 528.00 L 637.00 521.00 L 639.00 518.00 L 638.00 420.00 L 641.00 417.00 L 646.00 415.00 L 667.00 415.00 L 696.00 418.00 L 757.00 418.00 L 768.00 414.00 L 776.00 409.00 L 785.00 398.00 L 788.00 383.00 L 785.00 375.00 L 777.00 366.00 L 776.00 362.00 L 780.00 354.00 L 780.00 339.00 L 778.00 334.00 L 768.00 325.00 L 767.00 321.00 L 769.00 319.00 L 770.00 313.00 L 769.00 296.00 L 767.00 296.00 L 764.00 288.00 L 753.00 280.00 L 753.00 259.00 L 751.00 258.00 L 750.00 254.00 L 743.00 245.00 L 737.00 242.00 L 711.00 240.00 Z" fill="rgb(252,199,29)" stroke="none"/>
  <path d="M 481.00 143.00 L 475.00 144.00 L 467.00 149.00 L 392.00 224.00 L 392.00 228.00 L 396.00 235.00 L 398.00 243.00 L 400.00 245.00 L 404.00 244.00 L 449.00 200.00 L 459.00 188.00 L 477.00 172.00 L 486.00 167.00 L 490.00 170.00 L 489.00 177.00 L 472.00 196.00 L 452.00 214.00 L 448.00 220.00 L 448.00 229.00 L 453.00 236.00 L 458.00 237.00 L 469.00 229.00 L 512.00 185.00 L 518.00 181.00 L 523.00 181.00 L 528.00 188.00 L 501.00 214.00 L 496.00 221.00 L 474.00 243.00 L 472.00 250.00 L 474.00 254.00 L 480.00 258.00 L 489.00 258.00 L 497.00 253.00 L 527.00 223.00 L 556.00 199.00 L 561.00 199.00 L 565.00 203.00 L 565.00 208.00 L 563.00 211.00 L 536.00 234.00 L 502.00 269.00 L 500.00 277.00 L 501.00 281.00 L 506.00 287.00 L 511.00 288.00 L 525.00 279.00 L 538.00 264.00 L 566.00 239.00 L 583.00 221.00 L 594.00 221.00 L 597.00 225.00 L 597.00 231.00 L 584.00 244.00 L 569.00 256.00 L 527.00 299.00 L 521.00 303.00 L 506.00 322.00 L 504.00 326.00 L 503.00 338.00 L 507.00 348.00 L 604.00 445.00 L 606.00 445.00 L 607.00 442.00 L 606.00 414.00 L 575.00 384.00 L 562.00 369.00 L 533.00 343.00 L 527.00 336.00 L 527.00 328.00 L 573.00 287.00 L 593.00 266.00 L 614.00 247.00 L 619.00 240.00 L 623.00 230.00 L 620.00 213.00 L 616.00 208.00 L 604.00 199.00 L 585.00 196.00 L 583.00 189.00 L 575.00 179.00 L 569.00 176.00 L 548.00 175.00 L 541.00 166.00 L 531.00 160.00 L 523.00 158.00 L 506.00 160.00 L 504.00 154.00 L 497.00 147.00 L 487.00 143.00 Z" fill="rgb(252,156,32)" stroke="none"/>
  <path d="M 780.00 416.00 L 771.00 422.00 L 760.00 425.00 L 772.00 439.00 L 776.00 441.00 L 785.00 451.00 L 800.00 463.00 L 828.00 492.00 L 832.00 497.00 L 833.00 507.00 L 830.00 510.00 L 821.00 509.00 L 815.00 502.00 L 801.00 491.00 L 785.00 474.00 L 775.00 467.00 L 768.00 466.00 L 764.00 468.00 L 760.00 475.00 L 760.00 481.00 L 768.00 491.00 L 781.00 502.00 L 812.00 533.00 L 815.00 542.00 L 813.00 547.00 L 806.00 547.00 L 785.00 528.00 L 771.00 512.00 L 768.00 512.00 L 763.00 504.00 L 748.00 494.00 L 740.00 494.00 L 736.00 496.00 L 732.00 501.00 L 731.00 507.00 L 733.00 511.00 L 749.00 525.00 L 790.00 566.00 L 794.00 572.00 L 794.00 580.00 L 788.00 583.00 L 782.00 580.00 L 758.00 556.00 L 751.00 547.00 L 724.00 521.00 L 714.00 521.00 L 709.00 525.00 L 707.00 529.00 L 708.00 537.00 L 718.00 549.00 L 751.00 581.00 L 758.00 586.00 L 773.00 602.00 L 773.00 611.00 L 770.00 614.00 L 762.00 614.00 L 754.00 609.00 L 675.00 529.00 L 668.00 525.00 L 657.00 523.00 L 649.00 526.00 L 624.00 546.00 L 619.00 554.00 L 584.00 588.00 L 558.00 616.00 L 554.00 623.00 L 585.00 621.00 L 606.00 599.00 L 608.00 599.00 L 608.00 597.00 L 623.00 583.00 L 635.00 569.00 L 653.00 553.00 L 660.00 549.00 L 663.00 549.00 L 688.00 573.00 L 703.00 591.00 L 712.00 598.00 L 742.00 629.00 L 752.00 636.00 L 765.00 640.00 L 776.00 638.00 L 787.00 631.00 L 794.00 622.00 L 796.00 609.00 L 799.00 605.00 L 806.00 602.00 L 815.00 594.00 L 819.00 583.00 L 818.00 571.00 L 827.00 564.00 L 830.00 564.00 L 837.00 552.00 L 838.00 536.00 L 836.00 530.00 L 840.00 527.00 L 848.00 525.00 L 848.00 523.00 L 852.00 521.00 L 854.00 518.00 L 857.00 509.00 L 857.00 495.00 L 851.00 484.00 L 783.00 416.00 Z" fill="rgb(225,51,165)" stroke="none"/>
  <path d="M 371.00 570.00 L 368.00 572.00 L 368.00 603.00 L 370.00 603.00 L 386.00 623.00 L 390.00 625.00 L 405.00 640.00 L 417.00 655.00 L 422.00 657.00 L 440.00 674.00 L 443.00 678.00 L 443.00 683.00 L 433.00 695.00 L 359.00 768.00 L 357.00 773.00 L 356.00 784.00 L 357.00 794.00 L 360.00 802.00 L 368.00 809.00 L 374.00 812.00 L 382.00 813.00 L 383.00 815.00 L 392.00 813.00 L 394.00 819.00 L 401.00 829.00 L 415.00 835.00 L 428.00 835.00 L 430.00 837.00 L 432.00 844.00 L 446.00 851.00 L 447.00 853.00 L 460.00 853.00 L 467.00 851.00 L 475.00 864.00 L 482.00 868.00 L 480.00 869.00 L 484.00 868.00 L 488.00 870.00 L 486.00 871.00 L 495.00 871.00 L 496.00 869.00 L 502.00 869.00 L 502.00 867.00 L 512.00 863.00 L 537.00 837.00 L 559.00 817.00 L 580.00 793.00 L 580.00 790.00 L 577.00 786.00 L 574.00 777.00 L 575.00 772.00 L 574.00 774.00 L 573.00 770.00 L 571.00 771.00 L 508.00 837.00 L 497.00 846.00 L 491.00 847.00 L 487.00 843.00 L 487.00 836.00 L 529.00 792.00 L 530.00 782.00 L 526.00 776.00 L 519.00 773.00 L 512.00 776.00 L 464.00 826.00 L 456.00 829.00 L 450.00 825.00 L 449.00 821.00 L 505.00 765.00 L 504.00 755.00 L 497.00 750.00 L 490.00 749.00 L 486.00 751.00 L 458.00 779.00 L 448.00 786.00 L 432.00 802.00 L 432.00 804.00 L 424.00 809.00 L 416.00 810.00 L 412.00 805.00 L 416.00 797.00 L 421.00 792.00 L 425.00 791.00 L 428.00 786.00 L 461.00 753.00 L 472.00 744.00 L 475.00 738.00 L 475.00 728.00 L 469.00 724.00 L 461.00 724.00 L 449.00 733.00 L 396.00 788.00 L 391.00 791.00 L 384.00 791.00 L 379.00 787.00 L 377.00 783.00 L 378.00 779.00 L 379.00 781.00 L 380.00 780.00 L 378.00 778.00 L 384.00 773.00 L 387.00 773.00 L 392.00 765.00 L 400.00 759.00 L 461.00 699.00 L 465.00 693.00 L 467.00 685.00 L 467.00 673.00 L 463.00 667.00 L 463.00 664.00 L 460.00 663.00 L 426.00 629.00 L 409.00 608.00 L 383.00 584.00 Z" fill="rgb(243,55,64)" stroke="none"/>
  <path d="M 349.00 481.00 L 342.00 485.00 L 339.00 489.00 L 339.00 586.00 L 335.00 594.00 L 332.00 596.00 L 222.00 596.00 L 213.00 600.00 L 203.00 609.00 L 197.00 623.00 L 197.00 633.00 L 199.00 638.00 L 211.00 649.00 L 206.00 659.00 L 206.00 676.00 L 209.00 683.00 L 220.00 692.00 L 216.00 705.00 L 217.00 716.00 L 222.00 725.00 L 226.00 729.00 L 233.00 731.00 L 235.00 733.00 L 233.00 736.00 L 232.00 745.00 L 233.00 752.00 L 237.00 761.00 L 247.00 769.00 L 261.00 773.00 L 347.00 773.00 L 353.00 761.00 L 362.00 751.00 L 264.00 751.00 L 258.00 747.00 L 257.00 739.00 L 259.00 739.00 L 261.00 735.00 L 320.00 735.00 L 320.00 733.00 L 324.00 731.00 L 327.00 722.00 L 324.00 717.00 L 317.00 714.00 L 317.00 712.00 L 244.00 712.00 L 241.00 709.00 L 242.00 700.00 L 250.00 696.00 L 318.00 696.00 L 322.00 693.00 L 325.00 686.00 L 325.00 682.00 L 320.00 676.00 L 315.00 673.00 L 288.00 672.00 L 237.00 673.00 L 233.00 672.00 L 229.00 667.00 L 230.00 661.00 L 234.00 658.00 L 318.00 657.00 L 323.00 652.00 L 324.00 646.00 L 321.00 640.00 L 318.00 638.00 L 318.00 636.00 L 315.00 637.00 L 312.00 635.00 L 299.00 634.00 L 231.00 636.00 L 231.00 634.00 L 227.00 635.00 L 223.00 631.00 L 222.00 625.00 L 224.00 621.00 L 232.00 618.00 L 339.00 617.00 L 344.00 615.00 L 357.00 605.00 L 360.00 600.00 L 362.00 592.00 L 360.00 471.00 Z" fill="rgb(24,124,214)" stroke="none"/>
  <path d="M 452.00 631.00 L 446.00 632.00 L 448.00 636.00 L 451.00 637.00 L 464.00 652.00 L 567.00 652.00 L 573.00 654.00 L 577.00 658.00 L 579.00 664.00 L 578.00 748.00 L 580.00 767.00 L 584.00 782.00 L 586.00 782.00 L 592.00 795.00 L 605.00 801.00 L 619.00 800.00 L 625.00 797.00 L 634.00 788.00 L 643.00 793.00 L 654.00 794.00 L 662.00 791.00 L 675.00 780.00 L 693.00 781.00 L 703.00 777.00 L 708.00 773.00 L 713.00 761.00 L 719.00 763.00 L 720.00 765.00 L 731.00 764.00 L 740.00 761.00 L 746.00 756.00 L 751.00 748.00 L 753.00 739.00 L 753.00 645.00 L 745.00 642.00 L 734.00 635.00 L 733.00 637.00 L 732.00 731.00 L 730.00 738.00 L 728.00 740.00 L 720.00 740.00 L 716.00 738.00 L 714.00 735.00 L 713.00 676.00 L 709.00 672.00 L 703.00 670.00 L 696.00 672.00 L 692.00 676.00 L 692.00 752.00 L 689.00 757.00 L 682.00 757.00 L 677.00 750.00 L 677.00 681.00 L 675.00 677.00 L 668.00 671.00 L 663.00 671.00 L 656.00 674.00 L 654.00 683.00 L 654.00 764.00 L 651.00 769.00 L 646.00 771.00 L 644.00 771.00 L 642.00 769.00 L 644.00 768.00 L 642.00 769.00 L 639.00 765.00 L 639.00 676.00 L 633.00 672.00 L 627.00 671.00 L 621.00 673.00 L 617.00 681.00 L 619.00 770.00 L 616.00 775.00 L 607.00 776.00 L 605.00 771.00 L 604.00 773.00 L 602.00 769.00 L 601.00 763.00 L 602.00 658.00 L 597.00 642.00 L 595.00 642.00 L 588.00 635.00 L 573.00 631.00 L 483.00 631.00 Z" fill="rgb(75,78,202)" stroke="none"/>
  <path d="M 215.00 382.00 L 199.00 388.00 L 195.00 392.00 L 192.00 397.00 L 190.00 416.00 L 181.00 417.00 L 171.00 427.00 L 167.00 436.00 L 167.00 448.00 L 164.00 452.00 L 154.00 457.00 L 148.00 467.00 L 146.00 474.00 L 146.00 482.00 L 148.00 487.00 L 147.00 491.00 L 136.00 502.00 L 133.00 513.00 L 134.00 523.00 L 142.00 537.00 L 203.00 597.00 L 217.00 590.00 L 219.00 588.00 L 218.00 585.00 L 158.00 520.00 L 157.00 514.00 L 160.00 511.00 L 165.00 511.00 L 194.00 538.00 L 208.00 549.00 L 213.00 551.00 L 220.00 550.00 L 225.00 546.00 L 226.00 536.00 L 175.00 486.00 L 169.00 478.00 L 169.00 475.00 L 174.00 470.00 L 177.00 470.00 L 182.00 473.00 L 236.00 523.00 L 242.00 523.00 L 247.00 520.00 L 250.00 516.00 L 251.00 510.00 L 250.00 507.00 L 232.00 488.00 L 210.00 466.00 L 189.00 448.00 L 187.00 442.00 L 189.00 438.00 L 192.00 436.00 L 196.00 436.00 L 202.00 439.00 L 225.00 460.00 L 244.00 481.00 L 261.00 495.00 L 269.00 496.00 L 273.00 494.00 L 277.00 486.00 L 276.00 478.00 L 264.00 468.00 L 237.00 440.00 L 219.00 427.00 L 210.00 417.00 L 209.00 412.00 L 213.00 406.00 L 221.00 405.00 L 225.00 407.00 L 243.00 423.00 L 272.00 453.00 L 277.00 456.00 L 296.00 476.00 L 306.00 484.00 L 312.00 487.00 L 323.00 487.00 L 331.00 484.00 L 345.00 473.00 L 415.00 400.00 L 423.00 390.00 L 396.00 391.00 L 387.00 398.00 L 319.00 464.00 L 317.00 464.00 L 311.00 460.00 L 262.00 413.00 L 243.00 392.00 L 232.00 385.00 L 221.00 382.00 Z" fill="rgb(23,188,118)" stroke="none"/>
  <path d="M 360.00 218.00 L 352.00 220.00 L 341.00 228.00 L 333.00 224.00 L 319.00 224.00 L 307.00 231.00 L 299.00 240.00 L 292.00 237.00 L 279.00 238.00 L 272.00 242.00 L 266.00 248.00 L 263.00 255.00 L 260.00 258.00 L 256.00 256.00 L 244.00 256.00 L 233.00 262.00 L 228.00 267.00 L 224.00 276.00 L 223.00 288.00 L 223.00 372.00 L 225.00 374.00 L 232.00 375.00 L 240.00 379.00 L 242.00 372.00 L 244.00 297.00 L 243.00 285.00 L 248.00 278.00 L 254.00 278.00 L 258.00 281.00 L 259.00 333.00 L 262.00 338.00 L 268.00 343.00 L 275.00 342.00 L 277.00 339.00 L 279.00 332.00 L 279.00 268.00 L 282.00 262.00 L 285.00 260.00 L 291.00 260.00 L 295.00 264.00 L 296.00 335.00 L 299.00 340.00 L 303.00 343.00 L 310.00 343.00 L 314.00 341.00 L 317.00 334.00 L 318.00 322.00 L 317.00 255.00 L 318.00 250.00 L 321.00 247.00 L 329.00 247.00 L 332.00 250.00 L 332.00 315.00 L 334.00 336.00 L 341.00 343.00 L 349.00 341.00 L 353.00 336.00 L 354.00 332.00 L 353.00 254.00 L 355.00 247.00 L 359.00 243.00 L 366.00 242.00 L 370.00 248.00 L 372.00 362.00 L 376.00 371.00 L 384.00 379.00 L 398.00 383.00 L 527.00 383.00 L 505.00 362.00 L 400.00 362.00 L 394.00 358.00 L 392.00 351.00 L 392.00 244.00 L 387.00 231.00 L 380.00 224.00 L 367.00 218.00 Z" fill="rgb(98,192,67)" stroke="none"/>
</svg>
